<?xml version="1.0" encoding="UTF-8"?>
<svg id="Layer_1" data-name="Layer 1" xmlns="http://www.w3.org/2000/svg" viewBox="0 0 24 24">
  <defs>
    <style>
      .cls-1 {
        fill: #fff;
      }
    </style>
  </defs>
  <path class="cls-1" d="m7.64,12.89c0,1.41.7,2.16,2.06,2.16.28,0,.52,0,.94-.09v-4.17c-.33-.09-.56-.14-.89-.14-1.36,0-2.11.84-2.11,2.25Z"/>
  <path class="cls-1" d="m20.4,0H3.6C1.61,0,0,1.61,0,3.6v16.8c0,1.99,1.61,3.6,3.6,3.6h16.8c1.99,0,3.6-1.61,3.6-3.6V3.6c0-1.99-1.61-3.6-3.6-3.6ZM4.97,12.94c0-2.67,1.73-4.36,4.5-4.36.42,0,.75,0,1.17.09v-3.94h2.62v12.05c-1.36.23-2.34.38-3.42.38-3.23,0-4.88-1.45-4.88-4.22Zm12.47,1.83c0,2.11-.14,3.09-.61,3.94-.42.84-.98,1.36-2.16,1.97l-2.44-1.17c1.17-.52,1.73-1.03,2.06-1.73.38-.75.52-1.59.52-3.89v-5.16h2.62v6.05Zm0-7.36h-2.62v-2.67h2.62v2.67Z"/>
</svg>