<?xml version="1.0" encoding="UTF-8"?>
<svg id="Layer_1" data-name="Layer 1" xmlns="http://www.w3.org/2000/svg" viewBox="0 0 20.06 20.03">
  <defs>
    <style>
      .cls-1 {
        fill: #fff;
      }
    </style>
  </defs>
  <path class="cls-1" d="m18.21,14.42c-2.47,3.29-7.74,2.18-11.12,2.34,0,0-.6.03-1.2.13,0,0,.23-.1.52-.2,2.37-.82,3.5-.99,4.94-1.73,2.71-1.39,5.41-4.41,5.96-7.56-1.03,3.02-4.17,5.62-7.03,6.68-1.95.72-5.49,1.42-5.49,1.42,0,0-.14-.07-.14-.08-2.41-1.17-2.47-6.38,1.89-8.06,1.92-.74,3.75-.33,5.82-.82,2.21-.52,4.77-2.18,5.8-4.34,1.16,3.46,2.57,8.87.05,12.21Zm.04-13.28c-.29.7-.65,1.33-1.07,1.89-1.82-1.87-4.36-3.03-7.17-3.03C4.49,0,0,4.49,0,10.01c0,2.9,1.24,5.51,3.2,7.33l.22.19c-.37-.3-.42-.84-.13-1.2.3-.37.84-.42,1.2-.13.37.3.42.84.13,1.2-.3.37-.84.42-1.2.13l.15.13c1.74,1.47,3.99,2.35,6.44,2.35,5.28,0,9.61-4.11,9.98-9.29.27-2.54-.48-5.76-1.75-9.6"/>
</svg>